HIERARCHY
ROOT Hips
{
 OFFSET 0.000000 0.000000 0.000000
 CHANNELS 6 Xposition Yposition Zposition Yrotation Xrotation Zrotation
 JOINT Chest
 {
  OFFSET 0.000000 9.585900 0.002600
  CHANNELS 3 Yrotation Xrotation Zrotation
  JOINT Chest2
  {
   OFFSET 0.000000 9.601200 -0.005300
   CHANNELS 3 Yrotation Xrotation Zrotation
   JOINT Chest3
   {
    OFFSET 0.000000 9.561800 0.000000
    CHANNELS 3 Yrotation Xrotation Zrotation
    JOINT Chest4
    {
     OFFSET 0.000000 9.552100 0.000000
     CHANNELS 3 Yrotation Xrotation Zrotation
     JOINT Neck
     {
      OFFSET 0.000000 14.453000 0.000000
      CHANNELS 3 Yrotation Xrotation Zrotation
      JOINT Head
      {
       OFFSET 0.000000 8.936500 -0.011300
       CHANNELS 3 Yrotation Xrotation Zrotation
       End Site
       {
        OFFSET 0.000000 17.073600 -0.006000
       }
      }
     }
     JOINT RightCollar
     {
      OFFSET -2.921100 9.558500 0.000000
      CHANNELS 3 Yrotation Xrotation Zrotation
      JOINT RightShoulder
      {
       OFFSET -13.519700 0.000000 0.000000
       CHANNELS 3 Yrotation Xrotation Zrotation
       JOINT RightElbow
       {
        OFFSET 0.000000 -29.696600 0.000000
        CHANNELS 3 Yrotation Xrotation Zrotation
        JOINT RightWrist
        {
         OFFSET 0.000000 -24.004700 0.000000
         CHANNELS 3 Yrotation Xrotation Zrotation
         End Site
         {
          OFFSET 0.000000 -17.728500 0.000000
         }
        }
       }
      }
     }
     JOINT LeftCollar
     {
      OFFSET 2.921100 9.558500 0.000000
      CHANNELS 3 Yrotation Xrotation Zrotation
      JOINT LeftShoulder
      {
       OFFSET 13.519700 0.000000 0.000000
       CHANNELS 3 Yrotation Xrotation Zrotation
       JOINT LeftElbow
       {
        OFFSET 0.000000 -29.696600 0.000000
        CHANNELS 3 Yrotation Xrotation Zrotation
        JOINT LeftWrist
        {
         OFFSET 0.000000 -24.004700 0.000000
         CHANNELS 3 Yrotation Xrotation Zrotation
         End Site
         {
          OFFSET 0.000000 -17.728500 0.000000
         }
        }
       }
      }
     }
    }
   }
  }
 }
 JOINT RightHip
 {
  OFFSET -7.771700 -0.012900 -0.001300
  CHANNELS 3 Yrotation Xrotation Zrotation
  JOINT RightKnee
  {
   OFFSET 0.000000 -40.869800 0.001200
   CHANNELS 3 Yrotation Xrotation Zrotation
   JOINT RightAnkle
   {
    OFFSET 0.000000 -39.717900 0.002100
    CHANNELS 3 Yrotation Xrotation Zrotation
    JOINT RightToe
    {
     OFFSET 0.000000 -4.965400 11.033500
     CHANNELS 3 Yrotation Xrotation Zrotation
     End Site
     {
      OFFSET 0.000000 -1.423100 5.872300
     }
    }
   }
  }
 }
 JOINT LeftHip
 {
  OFFSET 7.771700 -0.012900 -0.001300
  CHANNELS 3 Yrotation Xrotation Zrotation
  JOINT LeftKnee
  {
   OFFSET 0.000000 -40.869800 0.001200
   CHANNELS 3 Yrotation Xrotation Zrotation
   JOINT LeftAnkle
   {
    OFFSET 0.000000 -39.717900 0.002100
    CHANNELS 3 Yrotation Xrotation Zrotation
    JOINT LeftToe
    {
     OFFSET 0.000000 -4.965400 11.033500
     CHANNELS 3 Yrotation Xrotation Zrotation
     End Site
     {
      OFFSET 0.000000 -1.423100 5.872300
     }
    }
   }
  }
 }
}
MOTION
Frames: 13
Frame Time: 0.008333
-45.643490 46.524396 11.890959 176.182564 -32.017468 -3.097952 -0.026535 19.359059 1.095714 -0.034613 2.325791 0.161114 -0.043879 3.831476 0.266319 -0.037468 16.770744 1.172630 -0.823898 16.638697 -1.495501 -0.967427 -4.881607 -2.500414 0.219958 0.940576 -2.356635 6.608968 -7.159940 -15.308175 -52.646464 -61.618932 101.048049 -1.856348 3.879025 -21.695340 -0.625981 0.048596 1.615178 -3.319446 -2.933967 14.662033 77.872341 -69.997305 -116.462782 -2.155678 14.485905 9.982076 -2.674196 -55.300212 -6.411409 -156.906821 80.119010 -147.963105 -8.288155 -12.148983 -5.834471 -0.051243 -0.248750 -0.027397 0.497736 -57.059200 11.725132 -111.435910 81.463860 -115.873233 4.380099 -6.503305 5.969725 0.193692 0.233487 0.084226
-45.645660 46.524636 11.892687 176.171411 -32.018221 -3.106641 -0.018968 19.359237 1.106338 -0.034283 2.324751 0.162734 -0.051485 3.829532 0.265774 -0.044767 16.764896 1.171174 -0.818774 16.648138 -1.500039 -0.963981 -4.868100 -2.507041 0.222641 0.944344 -2.357932 6.604225 -7.163401 -15.303512 -52.634604 -61.615902 101.046706 -1.859416 3.881174 -21.704477 -0.620063 0.052487 1.613261 -3.320532 -2.932708 14.662782 77.880646 -70.001804 -116.484824 -2.144371 14.488015 10.003423 -2.690193 -55.298890 -6.384126 -156.927721 80.128648 -147.987093 -8.295563 -12.144135 -5.835679 -0.049238 -0.246245 -0.024948 0.484174 -57.060723 11.743020 -111.469015 81.465338 -115.898801 4.390927 -6.506168 5.963226 0.193737 0.239655 0.084041
-45.649332 46.525274 11.893342 176.171356 -32.024005 -3.110432 -0.039127 19.361977 1.101623 -0.019419 2.326646 0.164892 -0.059364 3.828916 0.263438 -0.057582 16.761734 1.168490 -0.799727 16.654239 -1.504532 -0.964688 -4.861149 -2.508810 0.230842 0.945137 -2.359071 6.593341 -7.166890 -15.303013 -52.632366 -61.612983 101.060198 -1.860675 3.891895 -21.700953 -0.610396 0.053679 1.611432 -3.321112 -2.932386 14.662590 77.878194 -70.002975 -116.481703 -2.139978 14.488756 10.010770 -2.705331 -55.294071 -6.373655 -156.947019 80.133353 -148.013930 -8.299947 -12.140806 -5.836049 -0.039382 -0.246772 -0.022005 0.477839 -57.055466 11.746145 -111.476758 81.466009 -115.901124 4.384713 -6.505311 5.957168 0.197546 0.241990 0.085963
-45.653436 46.525414 11.894577 176.170397 -32.024281 -3.109674 -0.051528 19.360775 1.093514 -0.017388 2.327831 0.165191 -0.062887 3.826483 0.263621 -0.062301 16.763998 1.168863 -0.798287 16.659670 -1.506733 -0.955348 -4.858467 -2.514448 0.245335 0.944888 -2.362495 6.551505 -7.168372 -15.299233 -52.639261 -61.614805 101.092210 -1.861785 3.890666 -21.711321 -0.623102 0.042772 1.607384 -3.321245 -2.930325 14.671214 77.860120 -69.996179 -116.449624 -2.137675 14.490837 10.012018 -2.726530 -55.297079 -6.367182 -157.018272 80.140485 -148.097121 -8.293800 -12.135165 -5.840304 -0.037611 -0.249668 -0.021100 0.479526 -57.055737 11.733377 -111.490423 81.473961 -115.903741 4.381240 -6.502988 5.950174 0.194977 0.243849 0.083173
-45.656302 46.524787 11.896991 176.165657 -32.015944 -3.112691 -0.052903 19.351279 1.095139 -0.025580 2.326322 0.164545 -0.061688 3.825950 0.262407 -0.084417 16.756546 1.168460 -0.791492 16.672891 -1.510836 -0.938726 -4.847396 -2.525252 0.261737 0.952435 -2.365834 6.545848 -7.165519 -15.301246 -52.692330 -61.613006 101.131172 -1.854938 3.883321 -21.727030 -0.633362 0.035958 1.610307 -3.324655 -2.925387 14.677347 77.843197 -69.989131 -116.419113 -2.130771 14.482610 10.009702 -2.734986 -55.305819 -6.357924 -157.034047 80.147407 -148.113132 -8.297342 -12.133808 -5.851582 -0.028476 -0.247236 -0.012342 0.472856 -57.066223 11.724811 -111.505069 81.484554 -115.901377 4.392038 -6.497114 5.935713 0.189728 0.243279 0.079210
-45.657980 46.525244 11.897645 176.160663 -32.019343 -3.119651 -0.051340 19.353424 1.100697 -0.032066 2.324400 0.162048 -0.061335 3.827285 0.264030 -0.084000 16.755887 1.168589 -0.783752 16.675948 -1.512172 -0.947946 -4.831017 -2.521802 0.244033 0.948584 -2.359203 6.550688 -7.159230 -15.307863 -52.695797 -61.614189 101.149370 -1.851788 3.874640 -21.738508 -0.648335 0.028996 1.616159 -3.332279 -2.925853 14.679555 77.873542 -69.997680 -116.469357 -2.116361 14.481278 10.021387 -2.751326 -55.301077 -6.342298 -157.052545 80.153558 -148.133063 -8.294966 -12.133790 -5.857876 -0.027480 -0.246023 -0.010187 0.459668 -57.064368 11.736782 -111.535862 81.489233 -115.924061 4.392664 -6.497001 5.928027 0.187161 0.244491 0.078768
-45.659409 46.524653 11.899784 176.144881 -32.011448 -3.120553 -0.046478 19.345466 1.104419 -0.037783 2.323005 0.159933 -0.056775 3.827500 0.265401 -0.075456 16.756304 1.169710 -0.794317 16.679662 -1.509710 -0.963336 -4.813803 -2.509759 0.237606 0.946436 -2.356716 6.548765 -7.156508 -15.310683 -52.707363 -61.613318 101.160654 -1.850486 3.877393 -21.735049 -0.669574 0.021581 1.624111 -3.332656 -2.928124 14.677844 77.880080 -69.998169 -116.476706 -2.101656 14.485839 10.041999 -2.752586 -55.310729 -6.328358 -157.058196 80.164386 -148.138643 -8.302377 -12.122382 -5.862088 -0.027344 -0.247934 -0.008621 0.453941 -57.074107 11.751246 -111.557916 81.493364 -115.943665 4.400330 -6.498074 5.925297 0.187200 0.246428 0.078608
-45.660764 46.524699 11.900731 176.139433 -32.009926 -3.124541 -0.059697 19.341957 1.097599 -0.023649 2.324135 0.165302 -0.061121 3.828453 0.265592 -0.081399 16.755178 1.171904 -0.813956 16.684560 -1.502361 -0.946080 -4.812989 -2.520251 0.248766 0.947134 -2.361237 6.542523 -7.155179 -15.312511 -52.739573 -61.604015 101.168818 -1.844101 3.884332 -21.736891 -0.675413 0.014088 1.624084 -3.335472 -2.928618 14.677621 77.880089 -69.998136 -116.479537 -2.111395 14.488400 10.040033 -2.763358 -55.312586 -6.319962 -157.093437 80.173383 -148.173959 -8.304848 -12.114706 -5.866657 -0.025172 -0.251526 -0.009904 0.441153 -57.077229 11.764322 -111.571638 81.495862 -115.957261 4.410624 -6.496124 5.924262 0.180754 0.244423 0.075369
-45.661171 46.525751 11.900151 176.135838 -32.018110 -3.132382 -0.060696 19.350296 1.103455 -0.026734 2.324300 0.164478 -0.053731 3.828342 0.267353 -0.103247 16.756230 1.170809 -0.800340 16.684311 -1.504791 -0.952809 -4.811568 -2.512800 0.259934 0.944603 -2.363852 6.531950 -7.150397 -15.312702 -52.741468 -61.603321 101.181362 -1.853802 3.876447 -21.756821 -0.672071 0.004654 1.623827 -3.326317 -2.923908 14.673994 77.885303 -70.001377 -116.498051 -2.113705 14.490572 10.031172 -2.772702 -55.302120 -6.309465 -157.113951 80.179639 -148.192347 -8.305500 -12.111314 -5.871651 -0.015882 -0.253557 -0.008521 0.422737 -57.069963 11.780581 -111.638294 81.502397 -116.019948 4.417130 -6.502081 5.917795 0.181421 0.245393 0.074947
-45.660313 46.526317 11.900567 176.126235 -32.018877 -3.143060 -0.049763 19.350732 1.118696 -0.050698 2.326394 0.159642 -0.039297 3.826142 0.270951 -0.108309 16.755930 1.173416 -0.793699 16.685239 -1.508811 -0.959025 -4.813797 -2.503072 0.261442 0.941923 -2.373446 6.496183 -7.141487 -15.310752 -52.733280 -61.607336 101.220113 -1.866453 3.866698 -21.773805 -0.677872 -0.001568 1.623048 -3.316431 -2.919055 14.668961 77.897804 -70.005168 -116.520055 -2.115836 14.498642 10.023834 -2.786606 -55.299923 -6.287068 -157.118654 80.183563 -148.197939 -8.277011 -12.104852 -5.884469 -0.037305 -0.254919 -0.001350 0.403307 -57.070064 11.808042 -111.630868 81.492587 -116.005384 4.426285 -6.505705 5.914722 0.173494 0.248564 0.070935
-45.659955 46.526966 11.900846 176.111504 -32.019032 -3.146308 -0.049279 19.353745 1.120920 -0.042843 2.323847 0.162342 -0.049002 3.827216 0.269429 -0.112732 16.754142 1.175049 -0.803058 16.680948 -1.500733 -0.940144 -4.813721 -2.512528 0.261437 0.927233 -2.390379 6.493119 -7.126225 -15.302578 -52.748444 -61.594292 101.232549 -1.877728 3.859848 -21.782415 -0.677174 -0.006879 1.622624 -3.309487 -2.918970 14.666203 77.900802 -70.005324 -116.525280 -2.125670 14.507857 10.008002 -2.792913 -55.300094 -6.268935 -157.120442 80.186517 -148.199001 -8.274107 -12.101469 -5.888359 -0.011535 -0.256991 -0.002369 0.394417 -57.070015 11.828518 -111.644923 81.489867 -116.017639 4.438308 -6.511430 5.912332 0.177065 0.251045 0.070566
-45.661071 46.527760 11.900731 176.107026 -32.019126 -3.144647 -0.059013 19.354372 1.114839 -0.036515 2.323340 0.163443 -0.056651 3.826309 0.268473 -0.128875 16.750018 1.173220 -0.792635 16.681651 -1.498968 -0.926266 -4.811022 -2.521041 0.279897 0.926985 -2.401576 6.485033 -7.118802 -15.301126 -52.762102 -61.578129 101.239254 -1.864685 3.867854 -21.762290 -0.664457 -0.007302 1.620911 -3.310627 -2.919704 14.666291 77.893939 -70.000328 -116.506205 -2.142233 14.510656 9.983727 -2.793779 -55.298666 -6.267264 -157.078365 80.185941 -148.157760 -8.272435 -12.102035 -5.891409 -0.015346 -0.255298 -0.001284 0.386645 -57.067469 11.831912 -111.652736 81.494690 -116.028300 4.444816 -6.514691 5.917890 0.164279 0.253168 0.063563
-45.659932 46.528853 11.900621 176.093304 -32.020019 -3.150491 -0.056742 19.352597 1.121712 -0.037650 2.322823 0.163279 -0.058492 3.825722 0.268365 -0.124669 16.751212 1.173009 -0.786252 16.682870 -1.499281 -0.935801 -4.814893 -2.504582 0.287907 0.927513 -2.405597 6.472447 -7.114488 -15.301483 -52.766996 -61.574568 101.252230 -1.875199 3.860936 -21.775930 -0.666478 -0.013982 1.620758 -3.315580 -2.923450 14.671095 77.888349 -69.994860 -116.509050 -2.164631 14.523077 9.942880 -2.797578 -55.295126 -6.251505 -157.026634 80.188604 -148.101790 -8.259170 -12.094003 -5.894943 -0.015051 -0.255437 -0.002499 0.360489 -57.063246 11.859918 -111.677636 81.498338 -116.049788 4.453658 -6.526105 5.909343 0.162928 0.260114 0.063036
